<svg width="218" height="176" viewBox="0 0 218 176" fill="none" xmlns="http://www.w3.org/2000/svg">
<path d="M0 116C0 82.8629 24.6243 56 55 56C85.3757 56 110 82.8629 110 116C110 149.137 85.3757 176 55 176C24.6243 176 0 149.137 0 116Z" fill="white"/>
<path d="M110 116V56H55C55 89.1371 79.6243 116 110 116Z" fill="white"/>
<path d="M59 40H165.87V0H110.87C86.9231 0 66.5503 16.6962 59 40Z" fill="white"/>
<path d="M217 7.62939e-06L128 -1.51233e-07L128 40L173.803 40C193.746 40 210.712 23.3038 217 7.62939e-06Z" fill="white"/>
<path fill-rule="evenodd" clip-rule="evenodd" d="M166 0H126V176C148.091 176 166 158.091 166 136V0Z" fill="white"/>
<path fill-rule="evenodd" clip-rule="evenodd" d="M172.925 0C166.531 23.2656 149.28 39.9361 129 39.9452L174.058 39.9452C194.345 39.9452 211.603 23.2719 218 0H172.925Z" fill="#5D7287"/>
<path d="M39 94.5C39 73.237 54.8939 56 74.5 56C94.1061 56 110 73.237 110 94.5C110 115.763 94.1061 133 74.5 133C54.8939 133 39 115.763 39 94.5Z" fill="#003459"/>
<path d="M110 94.5V56H74.5C74.5 77.263 90.3939 94.5 110 94.5Z" fill="#003459"/>
</svg>
